<svg xmlns="http://www.w3.org/2000/svg" width="152" height="152" viewBox="0 0 152 152">
  <defs>
    <style>
      .cls-1 {
        fill: none;
        stroke: #fff;
        stroke-width: 4.43px;
      }

      .cls-1, .cls-2 {
        fill-rule: evenodd;
      }
    </style>
  </defs>
  <g id="Zeichenfläche_1" data-name="Zeichenfläche 1">
    <path id="Cells" class="cls-1" d="M79.028,102.892H88.25a2,2,0,0,0,2-2V91.67a2,2,0,0,0-2-2H79.028a2,2,0,0,0-2,2v9.222A2,2,0,0,0,79.028,102.892ZM59.2,83.06h9.222a2,2,0,0,0,2-2V71.838a2,2,0,0,0-2-2H59.2a2,2,0,0,0-2,2V81.06A2,2,0,0,0,59.2,83.06Zm19.833,0H88.25a2,2,0,0,0,2-2V71.838a2,2,0,0,0-2-2H79.028a2,2,0,0,0-2,2V81.06A2,2,0,0,0,79.028,83.06ZM39.363,63.227h9.222a2,2,0,0,0,2-2V52a2,2,0,0,0-2-2H39.363a2,2,0,0,0-2,2v9.222A2,2,0,0,0,39.363,63.227Zm19.833,0h9.222a2,2,0,0,0,2-2V52a2,2,0,0,0-2-2H59.2a2,2,0,0,0-2,2v9.222A2,2,0,0,0,59.2,63.227Zm19.833,0H88.25a2,2,0,0,0,2-2V52a2,2,0,0,0-2-2H79.028a2,2,0,0,0-2,2v9.222A2,2,0,0,0,79.028,63.227Zm23.938,39.665h9.009a2,2,0,0,0,2-2V91.67a2,2,0,0,0-2-2h-9.009a2,2,0,0,0-2,2v9.222A2,2,0,0,0,102.966,102.892Zm0-19.832h9.009a2,2,0,0,0,2-2V71.838a2,2,0,0,0-2-2h-9.009a2,2,0,0,0-2,2V81.06A2,2,0,0,0,102.966,83.06Zm0-19.833h9.009a2,2,0,0,0,2-2V52a2,2,0,0,0-2-2h-9.009a2,2,0,0,0-2,2v9.222A2,2,0,0,0,102.966,63.227Z"/>
    <path id="Vertical" class="cls-2" d="M95.53,46.511a1.532,1.532,0,0,1,1.532,1.532v57.406a1.532,1.532,0,0,1-3.064,0V48.043A1.532,1.532,0,0,1,95.53,46.511Z"/>
  </g>
</svg>
