<svg xmlns="http://www.w3.org/2000/svg" width="150" height="150" viewBox="0 0 150 150">
  <defs>
    <style>
      .cls-1 {
        fill: none;
        stroke: #fff;
        stroke-width: 3px;
        fill-rule: evenodd;
      }
    </style>
  </defs>
  <g id="Zeichenfläche_1" data-name="Zeichenfläche 1">
    <path id="Rechteck_1_Kopie_3" data-name="Rechteck 1 Kopie 3" class="cls-1" d="M23,20H33a3,3,0,0,1,3,3V33a3,3,0,0,1-3,3H23a3,3,0,0,1-3-3V23A3,3,0,0,1,23,20Zm47,0H80a3,3,0,0,1,3,3V33a3,3,0,0,1-3,3H70a3,3,0,0,1-3-3V23A3,3,0,0,1,70,20Zm47,0h10a3,3,0,0,1,3,3V33a3,3,0,0,1-3,3H117a3,3,0,0,1-3-3V23A3,3,0,0,1,117,20ZM47,20H57a3,3,0,0,1,3,3V33a3,3,0,0,1-3,3H47a3,3,0,0,1-3-3V23A3,3,0,0,1,47,20Zm46.5,0h10a3,3,0,0,1,3,3V33a3,3,0,0,1-3,3h-10a3,3,0,0,1-3-3V23A3,3,0,0,1,93.5,20Z"/>
    <path id="Rechteck_1_Kopie_4" data-name="Rechteck 1 Kopie 4" class="cls-1" d="M23,44H33a3,3,0,0,1,3,3V57a3,3,0,0,1-3,3H23a3,3,0,0,1-3-3V47A3,3,0,0,1,23,44Zm47,0H80a3,3,0,0,1,3,3V57a3,3,0,0,1-3,3H70a3,3,0,0,1-3-3V47A3,3,0,0,1,70,44Zm47,0h10a3,3,0,0,1,3,3V57a3,3,0,0,1-3,3H117a3,3,0,0,1-3-3V47A3,3,0,0,1,117,44ZM47,44H57a3,3,0,0,1,3,3V57a3,3,0,0,1-3,3H47a3,3,0,0,1-3-3V47A3,3,0,0,1,47,44Zm46.5,0h10a3,3,0,0,1,3,3V57a3,3,0,0,1-3,3h-10a3,3,0,0,1-3-3V47A3,3,0,0,1,93.5,44Z"/>
    <path id="Rechteck_1_Kopie_5" data-name="Rechteck 1 Kopie 5" class="cls-1" d="M23,67H33a3,3,0,0,1,3,3V80a3,3,0,0,1-3,3H23a3,3,0,0,1-3-3V70A3,3,0,0,1,23,67Zm47,0H80a3,3,0,0,1,3,3V80a3,3,0,0,1-3,3H70a3,3,0,0,1-3-3V70A3,3,0,0,1,70,67Zm47,0h10a3,3,0,0,1,3,3V80a3,3,0,0,1-3,3H117a3,3,0,0,1-3-3V70A3,3,0,0,1,117,67ZM47,67H57a3,3,0,0,1,3,3V80a3,3,0,0,1-3,3H47a3,3,0,0,1-3-3V70A3,3,0,0,1,47,67Zm46.5,0h10a3,3,0,0,1,3,3V80a3,3,0,0,1-3,3h-10a3,3,0,0,1-3-3V70A3,3,0,0,1,93.5,67Z"/>
    <path id="Rechteck_1_Kopie_6" data-name="Rechteck 1 Kopie 6" class="cls-1" d="M23,91H33a3,3,0,0,1,3,3v10a3,3,0,0,1-3,3H23a3,3,0,0,1-3-3V94A3,3,0,0,1,23,91Zm47,0H80a3,3,0,0,1,3,3v10a3,3,0,0,1-3,3H70a3,3,0,0,1-3-3V94A3,3,0,0,1,70,91Zm47,0h10a3,3,0,0,1,3,3v10a3,3,0,0,1-3,3H117a3,3,0,0,1-3-3V94A3,3,0,0,1,117,91ZM47,91H57a3,3,0,0,1,3,3v10a3,3,0,0,1-3,3H47a3,3,0,0,1-3-3V94A3,3,0,0,1,47,91Zm46.5,0h10a3,3,0,0,1,3,3v10a3,3,0,0,1-3,3h-10a3,3,0,0,1-3-3V94A3,3,0,0,1,93.5,91Z"/>
    <path id="Rechteck_1_Kopie_7" data-name="Rechteck 1 Kopie 7" class="cls-1" d="M23,114H33a3,3,0,0,1,3,3v10a3,3,0,0,1-3,3H23a3,3,0,0,1-3-3V117A3,3,0,0,1,23,114Zm47,0H80a3,3,0,0,1,3,3v10a3,3,0,0,1-3,3H70a3,3,0,0,1-3-3V117A3,3,0,0,1,70,114Zm47,0h10a3,3,0,0,1,3,3v10a3,3,0,0,1-3,3H117a3,3,0,0,1-3-3V117A3,3,0,0,1,117,114Zm-70,0H57a3,3,0,0,1,3,3v10a3,3,0,0,1-3,3H47a3,3,0,0,1-3-3V117A3,3,0,0,1,47,114Zm46.5,0h10a3,3,0,0,1,3,3v10a3,3,0,0,1-3,3h-10a3,3,0,0,1-3-3V117A3,3,0,0,1,93.5,114Z"/>
  </g>
</svg>
